<svg width="504" height="303" viewBox="0 0 504 303" fill="none" xmlns="http://www.w3.org/2000/svg">
<path d="M260.396 0.716463C259.296 0.916463 253.196 2.81646 246.896 5.01646C234.796 9.01646 230.896 9.91646 211.396 12.6165C204.796 13.5165 194.296 15.5165 187.996 17.1165C181.696 18.7165 173.396 20.5165 169.596 21.0165C162.996 22.0165 136.196 31.6165 137.296 32.7165C137.496 33.0165 143.096 31.3165 149.596 29.1165C160.096 25.5165 162.596 25.0165 170.496 25.0165C177.096 25.0165 182.496 24.2165 191.196 22.0165C197.696 20.4165 209.896 18.1165 218.396 17.0165C226.796 15.9165 235.596 14.3165 237.896 13.5165C243.696 11.4165 244.596 11.6165 242.096 14.3165C239.796 16.7165 239.296 18.0165 240.696 18.0165C241.096 18.0165 245.196 15.5165 249.796 12.5165C263.096 3.71646 269.796 3.11646 281.896 9.41646C285.496 11.2165 293.696 15.4165 300.096 18.8165C310.796 24.3165 311.596 24.9165 310.096 26.3165C307.996 28.2165 291.996 36.0165 290.296 36.0165C289.596 36.0165 288.796 36.4165 288.496 36.9165C288.196 37.4165 291.096 38.8165 295.096 40.0165C300.896 41.8165 301.996 42.4165 300.596 43.2165C298.896 44.1165 296.196 43.7165 280.196 40.2165C278.096 39.8165 277.896 40.1165 277.896 44.6165C277.896 49.5165 276.596 56.7165 275.496 57.7165C275.196 58.0165 272.196 55.9165 268.696 53.0165C261.996 47.4165 256.396 44.2165 255.296 45.3165C254.696 45.9165 255.796 51.1165 257.596 55.5165C257.896 56.3165 255.996 58.4165 252.896 60.6165L247.596 64.4165L248.096 76.9165C248.496 88.6165 248.496 89.3165 247.096 86.0165C244.796 80.5165 241.896 65.1165 241.896 58.4165C241.896 55.1165 241.596 52.0165 241.196 51.7165C240.896 51.3165 239.496 52.5165 238.196 54.2165L235.896 57.4165V51.4165C235.896 48.2165 236.296 44.0165 236.796 42.2165C237.696 39.4165 237.596 39.1165 236.096 39.9165C235.196 40.4165 231.696 43.6165 228.396 47.0165C220.796 54.9165 214.496 58.0165 206.296 58.0165C199.096 58.0165 194.296 55.4165 191.796 50.1165L190.196 46.8165L187.396 51.6165C184.396 56.7165 176.196 66.0165 174.796 66.0165C174.296 66.0165 174.196 63.6165 174.496 60.6165C174.896 57.7165 174.696 55.0165 174.196 54.7165C173.796 54.4165 170.696 59.3165 167.596 65.6165C160.696 79.1165 154.396 86.4165 145.296 91.5165C141.696 93.5165 138.496 95.0165 138.296 94.7165C137.996 94.5165 139.996 92.4165 142.596 90.1165C147.296 86.1165 147.296 86.0165 144.096 87.1165C138.696 88.9165 129.596 98.2165 125.596 105.716C121.096 114.416 118.696 122.516 119.496 126.616C119.996 129.216 119.696 130.016 118.096 130.916C114.996 132.516 114.896 132.416 114.896 127.116C114.896 119.916 118.196 110.416 123.396 102.716C126.596 97.8165 127.296 96.2165 125.896 97.0165C124.796 97.6165 122.596 99.8165 120.996 102.016C117.296 107.116 109.696 126.416 109.096 132.116L108.696 136.716L99.5958 137.416C94.6958 137.716 86.2958 138.016 80.9958 138.116C72.7958 138.216 71.8958 138.316 74.8958 139.216C79.0958 140.416 394.596 141.616 410.896 140.516C424.296 139.516 421.596 138.216 405.896 138.016C399.596 137.916 392.196 137.516 389.596 137.216C384.996 136.516 384.696 136.316 381.996 131.116C379.396 126.016 376.896 123.416 376.896 125.916C376.896 126.516 377.796 129.216 378.796 132.016L380.696 137.016H361.296C350.596 137.016 341.896 136.816 341.896 136.616C341.896 136.416 342.596 134.616 343.496 132.516C344.296 130.516 344.796 127.616 344.696 126.116C344.296 123.916 343.796 124.416 340.896 130.416L337.596 137.316L322.496 136.716C314.196 136.316 302.096 136.016 295.696 136.016C284.496 136.016 283.896 135.916 283.896 134.016C283.896 131.016 279.696 127.216 275.396 126.416C271.996 125.816 271.396 125.216 268.596 119.116C266.896 115.516 264.696 111.316 263.696 109.816C262.596 108.216 261.296 103.416 260.496 97.7165L259.196 88.2165L268.996 84.6165C274.396 82.6165 279.496 81.0165 280.396 81.0165C281.396 81.0165 285.196 82.7165 288.896 84.7165L295.596 88.4165L290.996 90.7165C288.496 91.9165 285.196 93.0165 283.796 93.0165C282.396 93.0165 280.396 93.7165 279.296 94.5165C278.096 95.4165 276.096 95.7165 273.796 95.3165C269.396 94.7165 266.396 96.1165 264.396 100.016C263.096 102.616 263.096 103.016 264.496 104.416C268.596 108.616 279.496 107.716 294.196 102.016C303.996 98.2165 305.396 97.3165 308.996 92.8165C313.896 86.6165 313.896 84.0165 309.296 79.2165L305.696 75.5165L307.796 79.1165C309.896 82.7165 310.596 87.0165 309.096 87.0165C308.696 87.0165 307.496 85.4165 306.496 83.5165C304.696 80.3165 304.396 80.1165 302.896 81.5165C301.396 82.9165 301.096 82.9165 299.896 81.4165C299.096 80.6165 296.596 78.5165 294.196 76.9165C289.696 73.8165 288.996 71.7165 291.296 68.5165C292.596 66.6165 292.796 66.7165 296.796 69.3165C302.296 72.9165 302.996 72.7165 298.896 68.5165C297.096 66.6165 295.696 64.9165 295.996 64.7165C299.196 62.4165 304.096 61.6165 317.696 61.2165L332.896 60.8165L337.596 65.1165C342.396 69.5165 344.496 69.1165 341.396 64.4165L339.796 61.9165L343.196 62.5165C346.096 63.1165 346.796 62.8165 348.296 60.6165C350.296 57.5165 352.496 57.0165 350.896 59.9165C350.396 61.0165 349.896 63.3165 349.896 65.0165C349.896 66.7165 349.196 69.7165 348.396 71.7165C347.596 73.6165 346.896 76.1165 346.896 77.2165C346.896 78.2165 346.196 80.1165 345.496 81.3165C344.696 82.5165 342.896 88.9165 341.596 95.5165C338.896 108.416 339.196 110.416 343.496 112.016C346.196 113.116 346.696 114.816 344.396 115.616C341.696 116.716 342.796 119.116 346.696 120.716C349.096 121.816 353.396 122.416 359.396 122.416C372.796 122.516 379.296 119.516 374.796 115.416C372.096 113.016 372.396 112.316 376.496 111.616C378.396 111.216 380.196 110.316 380.496 109.616C381.496 107.016 375.696 81.3165 372.196 72.7165C370.696 69.3165 368.896 67.7165 368.896 69.9165C368.896 70.3165 365.096 70.7165 360.396 70.6165L351.896 70.5165V67.8165C351.896 65.2165 351.996 65.2165 355.696 66.2165C360.796 67.6165 375.296 66.6165 378.396 64.6165C380.896 63.0165 384.896 52.4165 384.896 47.5165C384.896 44.2165 383.396 43.5165 376.396 43.4165C373.096 43.4165 369.096 43.0165 367.396 42.5165L364.396 41.7165L368.196 45.9165C372.996 51.3165 373.096 55.3165 368.396 55.8165C366.796 56.0165 364.196 57.3165 362.796 58.6165C360.296 61.0165 359.996 61.1165 356.696 59.7165C353.296 58.3165 349.896 54.7165 349.896 52.5165C349.896 51.9165 351.496 50.8165 353.596 50.1165C357.496 48.7165 361.896 44.6165 361.896 42.4165C361.896 41.7165 359.396 38.3165 356.396 34.9165C353.296 31.5165 351.096 28.5165 351.296 28.3165C352.196 27.4165 355.796 30.1165 359.696 34.5165L363.696 39.1165L362.896 35.4165C361.796 30.5165 358.596 27.5165 350.996 23.8165C342.096 19.5165 332.996 18.9165 325.796 21.9165C322.996 23.1165 320.396 23.9165 320.096 23.6165C319.796 23.3165 320.096 23.0165 320.696 23.0165C322.796 23.0165 321.996 21.2165 319.696 20.4165C315.696 19.2165 300.696 11.9165 292.896 7.41646C282.096 1.21646 269.796 -1.38354 260.396 0.716463ZM335.396 24.0165C335.696 24.5165 335.296 25.0165 334.496 25.0165C333.196 25.0165 332.896 26.3165 332.896 31.2165C332.896 35.8165 332.596 37.1165 331.796 36.3165C330.196 34.7165 329.096 27.7165 329.996 25.2165C330.896 22.9165 334.296 22.2165 335.396 24.0165ZM327.396 42.6165C328.796 46.1165 328.996 46.2165 330.796 44.6165C332.496 43.1165 332.696 43.0165 333.296 44.5165C333.596 45.4165 333.896 48.2165 333.896 50.6165C333.896 58.3165 330.096 57.5165 320.296 47.5165C314.396 41.4165 311.896 36.5165 313.796 34.7165C314.796 33.8165 315.496 34.1165 317.296 36.3165C320.196 39.9165 321.196 38.7165 319.296 34.1165C317.796 30.5165 317.796 30.5165 321.096 27.8165L324.396 25.1165L325.096 32.0165C325.496 35.8165 326.496 40.6165 327.396 42.6165ZM354.896 37.5165C354.896 38.3165 354.496 39.0165 353.996 39.0165C352.696 39.0165 351.796 37.4165 352.596 36.6165C353.696 35.5165 354.896 36.0165 354.896 37.5165ZM351.996 40.4165C354.896 41.6165 355.096 42.0165 353.596 42.6165C352.296 43.0165 350.996 42.6165 349.596 41.1165C347.096 38.6165 347.496 38.5165 351.996 40.4165ZM380.696 46.6165C379.796 47.5165 378.596 47.9165 377.996 47.5165C376.396 46.5165 377.696 45.0165 380.196 45.0165C382.196 45.0165 382.196 45.1165 380.696 46.6165ZM308.996 51.7165C310.296 53.2165 309.896 53.3165 303.796 52.8165C300.096 52.5165 296.296 51.8165 295.296 51.2165C293.796 50.3165 294.896 50.1165 300.496 50.0165C305.996 50.0165 307.996 50.4165 308.996 51.7165ZM206.296 64.0165C209.296 65.2165 212.296 66.8165 213.096 67.7165C214.196 69.1165 214.196 69.3165 212.796 68.8165C211.896 68.5165 207.796 67.6165 203.696 66.9165C196.896 65.8165 195.596 65.8165 191.396 67.4165C188.896 68.4165 186.596 69.0165 186.296 68.7165C185.996 68.5165 187.496 66.8165 189.596 65.1165C194.096 61.4165 198.396 61.1165 206.296 64.0165ZM259.796 74.8165C259.696 81.9165 258.396 82.7165 257.096 76.4165C256.496 73.1165 255.696 69.4165 255.396 68.0165L254.696 65.5165L257.296 68.3165C259.196 70.3165 259.896 72.2165 259.796 74.8165ZM190.296 75.2165C192.496 78.2165 192.296 82.3165 189.896 87.0165C188.796 89.2165 187.896 91.1165 187.896 91.4165C187.896 91.7165 189.996 89.7165 192.496 87.0165C195.096 84.2165 197.796 82.0165 198.496 82.0165C202.496 82.0165 197.196 93.5165 189.996 100.516C185.496 104.816 184.496 103.716 188.296 98.7165C189.596 96.9165 190.996 94.4165 191.396 93.0165C192.096 90.7165 191.696 90.9165 187.996 94.4165C181.896 100.416 180.596 103.916 181.396 112.416C181.996 119.216 183.796 125.216 183.896 120.616C183.896 119.216 184.196 118.916 184.996 119.716C186.396 121.116 184.296 129.016 182.496 129.016C181.696 129.016 180.696 126.416 179.896 121.816C178.596 115.316 178.396 114.916 177.696 117.616C176.796 120.716 177.496 129.816 178.896 133.616C179.696 135.616 179.396 135.816 175.596 136.216C173.296 136.416 163.196 136.716 153.196 136.916L134.896 137.216V134.216C134.896 130.916 132.396 128.216 128.296 127.116C123.996 126.016 123.896 121.716 128.096 115.516C132.796 108.416 139.596 103.816 150.496 100.016C162.296 95.9165 167.096 92.8165 173.796 84.6165C183.096 73.1165 187.196 70.8165 190.296 75.2165ZM352.296 76.3165C351.996 77.2165 351.296 78.0165 350.796 78.0165C349.696 78.0165 349.596 74.6165 350.596 73.6165C351.696 72.5165 352.996 74.5165 352.296 76.3165ZM370.696 76.4165C370.996 77.6165 370.596 78.1165 369.696 77.8165C368.996 77.5165 368.196 76.5165 368.096 75.6165C367.796 74.4165 368.196 73.9165 369.096 74.2165C369.796 74.5165 370.596 75.5165 370.696 76.4165ZM227.896 78.0165C235.196 81.7165 235.896 81.7165 235.996 78.2165C236.096 76.6165 237.596 80.1165 239.796 87.0165C241.896 93.3165 245.396 102.816 247.696 108.016C249.896 113.216 252.496 120.016 253.396 123.216C254.296 126.316 255.596 129.116 256.396 129.416C257.296 129.716 257.896 131.216 257.896 133.016V136.016H229.396C201.296 136.016 200.896 136.016 200.896 133.916C200.896 130.816 199.096 128.016 196.396 127.016C192.096 125.416 190.296 112.916 193.696 107.916C195.796 104.616 199.396 101.716 208.996 95.2165C217.796 89.3165 220.896 85.1165 220.896 79.1165C220.896 76.9165 221.096 75.0165 221.396 75.0165C221.696 75.0165 224.596 76.3165 227.896 78.0165ZM365.396 76.0165C365.796 76.6165 363.696 77.0165 359.896 77.0165C356.096 77.0165 353.996 76.6165 354.396 76.0165C354.696 75.4165 357.196 75.0165 359.896 75.0165C362.596 75.0165 365.096 75.4165 365.396 76.0165ZM350.196 92.7165C347.896 101.916 347.796 102.716 349.296 105.316C351.496 109.216 351.296 110.016 348.196 110.016C342.196 110.016 341.996 108.316 345.496 93.5165C347.496 85.1165 348.596 83.0165 350.796 83.0165C352.596 83.0165 352.596 83.3165 350.196 92.7165ZM371.896 85.2165C372.396 86.5165 373.796 92.0165 374.896 97.5165C376.896 106.916 376.896 107.516 375.296 108.716C373.296 110.216 369.296 110.416 368.496 109.116C368.196 108.616 368.896 107.016 369.996 105.616L372.096 102.916L369.996 94.5165C368.796 89.9165 367.896 85.4165 367.896 84.5165C367.896 82.2165 370.796 82.7165 371.896 85.2165ZM357.696 93.7165C357.396 103.416 357.396 103.516 354.896 103.516C352.496 103.516 352.396 103.316 352.496 97.5165C352.596 91.3165 354.996 84.0165 356.896 84.0165C357.596 84.0165 357.896 87.2165 357.696 93.7165ZM366.996 94.0165C368.396 102.016 367.796 104.316 364.696 103.816C362.496 103.516 362.396 103.016 362.096 95.1165C361.896 90.5165 362.096 86.0165 362.396 85.1165C363.496 82.3165 365.596 86.5165 366.996 94.0165ZM303.896 94.0165C303.896 95.7165 299.596 97.8165 292.896 99.5165C289.296 100.416 285.196 101.516 283.596 102.016C277.596 103.916 282.396 101.116 290.596 98.0165C295.396 96.2165 299.796 94.3165 300.396 93.8165C301.696 92.7165 303.896 92.8165 303.896 94.0165ZM252.096 98.8165C253.596 101.416 259.296 118.716 260.596 125.016C261.096 127.216 260.996 127.316 259.696 126.016C257.896 124.116 248.896 100.916 248.896 98.1165C248.896 95.2165 250.196 95.5165 252.096 98.8165ZM274.696 97.6165C277.896 98.5165 277.396 100.016 273.996 100.016C270.996 100.016 269.396 98.8165 270.596 97.6165C271.396 96.9165 271.796 96.9165 274.696 97.6165ZM363.896 110.016C363.096 110.516 361.096 111.016 359.396 111.016C357.796 111.016 355.696 110.516 354.896 110.016C353.796 109.316 355.196 109.016 359.396 109.016C363.596 109.016 364.996 109.316 363.896 110.016ZM370.496 115.516C367.796 117.616 362.596 118.416 356.196 117.716C347.396 116.816 347.796 115.316 356.596 115.816C360.896 116.016 365.996 115.816 367.896 115.216C372.596 113.816 372.696 113.816 370.496 115.516ZM196.496 129.416C197.896 130.516 198.096 131.116 197.196 132.016C196.296 133.016 195.496 132.916 193.796 131.616C192.496 130.716 190.496 130.316 188.996 130.616C186.496 131.116 186.496 131.116 188.296 129.616C190.796 127.616 193.896 127.616 196.496 129.416ZM130.796 131.416C132.396 133.316 130.596 134.416 127.596 133.416C126.396 133.016 124.496 132.716 123.396 132.916C121.796 133.216 121.696 133.016 122.796 131.616C124.496 129.616 129.196 129.516 130.796 131.416ZM278.896 131.616C278.896 132.916 278.196 133.116 275.796 132.616C274.096 132.316 271.796 132.016 270.696 132.016C269.696 132.016 269.096 131.516 269.396 131.016C269.696 130.416 271.996 130.016 274.496 130.016C277.896 130.016 278.896 130.416 278.896 131.616Z" fill="black"/>
<path d="M264.496 13.7165C264.196 14.0165 263.896 15.9165 263.896 17.7165C263.896 22.1165 268.096 26.4165 273.796 28.0165C278.596 29.3165 282.896 28.9165 279.396 27.5165C275.496 25.9165 270.596 21.7165 267.896 17.4165C266.396 15.0165 264.896 13.3165 264.496 13.7165Z" fill="black"/>
<path d="M204.296 28.9165C200.496 30.6165 192.396 38.8165 193.396 39.9165C193.696 40.1165 195.196 39.4165 196.696 38.3165C205.596 31.7165 209.196 29.6165 213.596 28.4165L218.396 27.1165H213.396C210.596 27.1165 206.596 27.8165 204.296 28.9165Z" fill="black"/>
<path d="M149.396 32.6165C138.096 37.1165 129.396 39.0165 120.396 38.9165C110.896 38.8165 106.196 37.3165 114.396 37.0165C126.096 36.6165 126.596 35.2165 115.096 35.3165C108.196 35.4165 103.996 35.8165 104.196 36.4165C104.396 36.9165 105.796 38.3165 107.296 39.4165C109.696 41.3165 111.396 41.5165 121.696 41.4165C131.496 41.3165 135.296 40.8165 145.096 38.2165C151.496 36.4165 158.696 35.0165 160.896 35.0165H165.096L163.096 38.2165C161.996 40.0165 159.196 46.9165 156.896 53.5165C151.696 68.0165 148.796 74.2165 144.196 79.7165C141.996 82.5165 141.296 84.0165 142.196 84.0165C144.896 84.0165 148.996 79.8165 151.996 73.8165C155.396 67.2165 156.396 66.6165 154.796 72.4165C154.196 74.5165 153.996 76.4165 154.296 76.7165C155.296 77.7165 159.796 67.2165 162.796 56.5165C164.596 50.4165 167.496 42.4165 169.396 38.5165C171.696 33.9165 172.596 31.3165 171.896 30.6165C171.296 30.0165 168.096 29.5165 164.596 29.3165C159.396 29.0165 156.996 29.5165 149.396 32.6165Z" fill="black"/>
<path d="M258.796 37.4165C267.496 43.6165 269.496 43.5165 264.196 37.1165C261.996 34.6165 260.396 33.7165 256.896 33.3165L252.396 32.8165L258.796 37.4165Z" fill="black"/>
<path d="M176.996 39.5165C173.996 43.0165 172.996 46.0165 174.896 46.0165C177.296 46.0165 182.096 37.9165 180.596 36.3165C180.396 36.1165 178.796 37.5165 176.996 39.5165Z" fill="black"/>
<path d="M407.896 43.0165C403.696 47.2165 402.496 49.8165 405.696 48.1165C406.596 47.6165 409.196 45.3165 411.396 43.1165C414.196 40.1165 414.796 39.0165 413.596 39.0165C412.696 39.0165 410.096 40.8165 407.896 43.0165Z" fill="black"/>
<path d="M394.896 53.7165C388.696 57.8165 383.796 64.0165 386.696 64.0165C388.996 64.0165 398.896 55.4165 398.896 53.3165C398.896 51.6165 397.896 51.7165 394.896 53.7165Z" fill="black"/>
<path d="M403.396 66.1165C398.496 68.3165 392.296 71.1165 389.696 72.2165C385.396 74.1165 383.496 76.0165 385.796 76.0165C388.796 76.0165 412.696 66.5165 415.896 63.9165L418.396 62.0165L415.396 62.1165C413.796 62.1165 408.396 63.9165 403.396 66.1165Z" fill="black"/>
<path d="M311.396 68.2165C317.196 71.3165 333.896 77.0165 337.196 77.0165C344.896 77.0165 335.296 71.7165 320.996 68.1165C316.296 67.0165 311.396 66.0165 309.996 66.0165C307.596 66.1165 307.796 66.3165 311.396 68.2165Z" fill="black"/>
<path d="M317.096 83.7165C316.496 83.9165 316.096 84.6165 316.496 85.1165C317.196 86.3165 333.596 86.3165 334.296 85.1165C335.296 83.5165 320.596 82.3165 317.096 83.7165Z" fill="black"/>
<path d="M383.996 84.9165C381.396 86.6165 387.496 87.3165 397.796 86.7165C413.896 85.7165 414.496 84.1165 398.896 84.1165C391.496 84.1165 384.696 84.4165 383.996 84.9165Z" fill="black"/>
<path d="M418.096 84.7165C415.296 85.8165 418.396 87.0165 424.396 87.0165C431.696 87.0165 434.796 86.2165 432.696 84.9165C431.296 84.0165 420.296 83.8165 418.096 84.7165Z" fill="black"/>
<path d="M386.896 97.0165C386.896 99.5165 410.896 108.016 418.196 108.016C423.996 108.016 411.796 102.116 397.296 98.0165C389.596 95.8165 386.896 95.5165 386.896 97.0165Z" fill="black"/>
<path d="M321.396 100.516C308.596 104.316 299.396 108.816 301.096 110.616C301.996 111.516 313.896 107.116 324.396 102.016C333.596 97.6165 332.696 97.1165 321.396 100.516Z" fill="black"/>
<path d="M328.896 113.817C325.796 117.017 325.196 118.517 326.796 119.517C328.696 120.617 334.096 112.917 332.496 111.317C332.196 111.017 330.596 112.117 328.896 113.817Z" fill="black"/>
<path d="M385.896 113.416C385.896 114.916 388.496 118.016 389.796 118.016C391.796 118.016 391.696 116.416 389.696 114.316C387.196 111.716 385.896 111.416 385.896 113.416Z" fill="black"/>
<path d="M394.896 121.816C394.896 123.416 397.896 126.616 402.296 129.816C408.596 134.316 408.396 131.616 401.896 125.616C397.296 121.316 394.896 120.016 394.896 121.816Z" fill="black"/>
<path d="M316.596 123.116C314.596 124.316 309.396 134.016 310.796 134.016C313.296 134.016 320.896 125.416 320.896 122.516C320.896 121.716 318.596 122.016 316.596 123.116Z" fill="black"/>
<path d="M358.096 127.216C355.896 129.416 356.896 136.016 359.396 136.016C361.996 136.016 362.896 129.116 360.596 127.116C359.596 126.316 358.896 126.416 358.096 127.216Z" fill="black"/>
<path d="M18.9958 153.616C14.9958 156.016 14.3958 156.116 10.8958 155.016C4.29578 152.816 -1.60422 157.816 0.395783 164.116C1.09578 166.216 1.19578 166.216 2.49578 163.216C3.99578 159.416 7.29578 158.916 8.99578 162.116C9.79578 163.616 9.99578 172.016 9.69578 189.916C9.19578 218.216 8.59578 221.516 2.69578 226.516C-1.90422 230.416 3.29578 230.316 8.99578 226.416C12.9958 223.716 16.1958 223.416 19.8958 225.516C21.2958 226.316 24.0958 226.916 26.0958 227.016C29.0958 227.016 30.7958 226.116 35.4958 222.016C38.6958 219.216 42.2958 216.716 43.4958 216.416C45.4958 215.916 45.5958 215.516 44.7958 213.316C43.3958 209.516 43.6958 199.216 45.3958 196.016C47.2958 192.416 45.7958 192.016 42.4958 195.316C41.0958 196.716 38.9958 201.316 37.4958 206.116C33.2958 219.916 28.8958 224.916 23.3958 222.016C19.1958 219.816 17.8958 214.416 17.8958 199.716C17.8958 183.516 18.4958 182.116 23.1958 187.316C25.0958 189.316 27.1958 191.016 27.7958 191.016C30.2958 191.016 34.5958 188.016 35.6958 185.516C37.2958 182.016 37.2958 182.016 33.9958 182.616C32.2958 183.016 29.1958 182.516 26.5958 181.516C23.0958 180.216 21.6958 180.116 19.9958 180.916C17.8958 182.116 17.8958 181.916 17.8958 171.616C17.8958 161.216 17.8958 161.216 20.9958 158.616C22.6958 157.216 25.2958 156.016 26.6958 156.016C30.2958 156.016 35.4958 159.316 37.1958 162.716C39.2958 166.616 42.4958 169.416 44.3958 168.616C45.7958 168.116 45.7958 167.716 44.3958 165.116C43.5958 163.416 42.8958 159.716 42.8958 156.816C42.8958 152.816 42.5958 151.916 41.6958 152.816C40.0958 154.416 35.9958 154.316 32.8958 152.516C28.9958 150.316 23.8958 150.716 18.9958 153.616Z" fill="black"/>
<path d="M284.396 152.716C281.896 153.716 278.196 154.316 274.496 154.216C267.096 153.916 263.896 155.716 263.896 160.216V163.316L266.396 160.616C268.496 158.416 269.196 158.116 270.896 159.016C272.796 160.016 272.896 161.016 272.896 185.816C272.896 214.116 272.296 217.216 266.396 221.816L263.596 224.016H267.096C269.596 224.016 271.696 223.016 274.596 220.616C276.796 218.716 279.796 216.816 281.296 216.416C283.296 215.916 283.696 215.416 282.996 214.716C282.296 214.016 281.896 208.416 281.896 200.316V187.016H287.696C290.796 187.016 294.996 186.516 296.996 186.016C303.496 184.216 308.896 176.116 308.896 168.216C308.896 163.516 305.296 156.316 301.696 153.616C297.996 151.016 289.596 150.516 284.396 152.716ZM295.696 158.316C298.496 160.916 300.096 166.716 299.296 171.116C297.696 179.416 293.096 184.016 286.296 184.016H281.896V170.516V157.116L285.196 156.116C289.296 154.916 292.796 155.616 295.696 158.316Z" fill="black"/>
<path d="M102.296 163.917C94.0958 165.917 88.2958 174.517 87.2958 186.117C85.9958 199.117 92.5958 211.417 101.496 212.917C106.996 213.917 113.896 212.417 116.896 209.617C118.296 208.317 120.496 206.917 121.796 206.517C123.896 205.917 123.996 205.617 122.596 204.817C120.196 203.517 120.096 188.517 122.496 187.217C124.996 185.817 122.396 184.717 119.796 186.117C118.196 186.917 116.596 186.917 113.396 186.017C108.296 184.617 105.396 185.317 103.196 188.617C101.296 191.617 102.196 192.917 104.696 190.717C109.396 186.417 112.896 189.817 112.896 198.617C112.896 206.117 111.796 208.717 108.196 210.117C101.696 212.517 96.6958 203.717 96.5958 189.617C96.3958 171.117 103.896 161.317 112.196 168.817C114.096 170.517 114.196 174.317 112.396 178.217C110.996 181.517 113.896 180.117 118.396 175.217C120.996 172.417 122.296 170.317 121.596 170.117C120.896 169.917 118.896 168.417 117.096 166.917C115.296 165.317 112.796 164.017 111.596 164.017C110.396 164.017 108.496 163.817 107.396 163.617C106.296 163.317 103.996 163.517 102.296 163.917Z" fill="black"/>
<path d="M125.396 163.916C125.196 164.116 125.596 164.916 126.396 165.716C128.696 167.916 128.596 207.616 126.296 210.116C124.896 211.716 125.396 211.716 134.596 211.316C153.796 210.516 151.496 211.316 153.196 204.716L154.596 198.916L151.996 199.516C149.596 200.016 148.296 201.216 143.696 206.916C141.596 209.516 138.296 209.616 137.096 207.216C135.896 205.116 136.896 165.016 137.996 165.016C138.496 165.016 138.896 164.716 138.896 164.216C138.896 163.516 126.096 163.116 125.396 163.916Z" fill="black"/>
<path d="M158.596 166.016C160.096 169.016 159.596 207.516 157.896 209.516C157.096 210.416 158.396 210.616 163.596 210.416C167.396 210.316 170.496 210.116 170.696 210.116C170.896 210.016 170.296 209.316 169.496 208.416C167.196 206.216 167.096 167.516 169.396 165.016C170.696 163.616 170.196 163.416 163.996 163.416H157.196L158.596 166.016Z" fill="black"/>
<path d="M179.696 165.116C167.296 171.616 171.696 185.216 186.896 187.616C189.196 188.016 192.396 189.416 193.996 190.716C196.396 192.716 196.896 194.016 196.896 197.516C196.896 203.716 193.996 207.016 188.496 207.016C185.296 207.016 183.696 206.416 182.096 204.716C179.296 201.716 179.196 196.616 181.896 194.316C183.296 193.016 183.596 192.316 182.696 191.316C179.396 187.316 172.396 192.516 172.396 199.016C172.396 206.216 178.696 210.416 188.496 209.816C200.996 209.016 207.596 199.516 203.496 188.516C201.296 183.016 197.996 180.516 189.796 178.416C182.496 176.616 179.896 174.716 179.896 171.416C179.896 168.316 183.496 166.016 188.496 166.016C194.496 166.016 198.196 171.316 194.696 174.816C193.796 175.716 193.996 176.016 195.696 176.016C196.896 176.016 197.896 175.616 197.896 175.116C197.896 174.616 199.196 172.816 200.796 171.116C202.396 169.416 203.196 168.016 202.496 168.016C201.796 168.016 199.796 166.916 197.896 165.516C193.596 162.316 185.296 162.116 179.696 165.116Z" fill="black"/>
<path d="M207.396 165.016C208.596 166.416 208.896 170.116 208.896 186.616C208.896 200.716 208.496 207.016 207.696 207.816C205.896 209.616 207.596 210.516 210.396 209.216C212.096 208.416 213.696 208.416 215.896 209.216C219.296 210.316 220.896 209.616 219.096 207.816C217.696 206.416 217.396 184.016 218.696 184.016C219.196 184.016 220.796 185.416 222.496 187.116C224.796 189.516 225.996 190.016 228.196 189.616L230.896 189.016V197.816C230.896 202.716 230.396 207.116 229.796 207.716C229.096 208.416 230.696 208.716 235.396 208.716C240.096 208.716 241.696 208.416 240.996 207.716C240.296 207.016 239.896 199.316 239.896 185.816C239.896 168.016 240.096 165.016 241.496 164.216C242.496 163.616 240.396 163.316 235.396 163.316C230.396 163.316 228.296 163.616 229.296 164.216C230.596 164.916 230.896 166.916 230.896 174.016C230.896 182.716 230.796 183.016 228.696 183.016C227.396 182.916 225.296 182.316 223.996 181.616C222.696 180.916 220.796 180.516 219.696 180.816C218.096 181.216 217.896 180.516 217.896 173.316C217.896 169.016 218.296 165.016 218.896 164.416C219.496 163.816 217.496 163.416 212.896 163.416C206.296 163.316 205.996 163.416 207.396 165.016Z" fill="black"/>
<path d="M322.396 164.216C318.196 166.516 314.796 170.616 312.896 175.716C306.396 193.016 317.596 213.716 331.296 209.916C342.796 206.716 348.296 187.416 341.496 173.616C337.096 164.716 328.796 160.616 322.396 164.216ZM332.896 171.516C337.596 181.016 335.696 203.916 329.896 207.016C324.896 209.716 320.796 202.516 320.096 189.916C318.996 170.216 326.696 159.116 332.896 171.516Z" fill="black"/>
<path d="M346.896 164.216C346.896 164.616 347.396 165.216 347.896 165.516C348.496 165.916 348.896 174.316 348.896 187.616C348.896 201.216 348.496 209.016 347.896 209.016C347.396 209.016 346.896 209.516 346.896 210.116C346.896 210.816 348.096 211.016 350.296 210.616C352.096 210.216 354.896 210.416 356.396 211.016C359.496 212.216 360.896 211.616 359.096 209.816C357.596 208.316 357.396 166.416 358.896 165.516C361.196 164.116 359.496 163.516 353.396 163.516C349.796 163.516 346.896 163.816 346.896 164.216Z" fill="black"/>
<path d="M363.196 164.716C364.696 166.416 364.896 169.116 364.896 187.816C364.896 200.816 364.496 209.116 363.896 209.516C361.796 210.816 362.996 211.516 367.396 211.616C371.996 211.716 372.696 211.216 370.896 209.416C370.196 208.716 369.896 202.816 370.096 193.916L370.396 179.516L380.696 193.916C390.496 207.616 390.896 208.416 389.496 210.516C387.996 212.716 387.996 212.816 392.996 212.716C396.296 212.616 397.596 212.316 396.896 211.616C395.496 210.216 395.496 166.316 396.896 165.516C398.796 164.316 396.896 163.016 394.796 164.016C393.496 164.716 392.296 164.716 390.996 164.116C388.596 162.816 387.596 163.816 389.396 165.716C390.596 166.816 390.896 170.016 390.896 179.316C390.896 193.516 391.696 193.516 380.396 178.016C374.396 169.716 372.896 167.016 373.396 165.116C373.896 163.016 373.696 162.816 371.696 163.416C368.596 164.416 367.896 164.416 364.396 163.516C361.496 162.716 361.396 162.716 363.196 164.716Z" fill="black"/>
<path d="M49.4958 164.916C49.1958 165.416 49.5958 166.016 50.3958 166.416C51.6958 166.816 51.8958 170.516 51.8958 190.116C51.8958 210.316 51.6958 213.616 50.1958 215.216C48.8958 216.616 48.8958 217.016 49.9958 217.016C50.7958 217.016 52.0958 216.616 52.7958 216.116C53.6958 215.516 54.9958 215.516 56.0958 216.116C58.5958 217.416 60.4958 216.216 58.3958 214.616C57.0958 213.716 56.8958 211.216 57.0958 197.516L57.3958 181.616L67.6958 195.916C77.3958 209.616 77.8958 210.416 76.4958 212.516C74.9958 214.716 75.0958 214.816 79.9958 214.716C84.6958 214.616 86.0958 213.816 83.8958 212.516C83.2958 212.116 82.8958 203.216 82.8958 188.916C82.8958 174.316 83.2958 166.016 83.8958 166.016C84.4958 166.016 84.8958 165.616 84.8958 165.216C84.8958 164.716 82.5958 164.316 79.7958 164.316C75.0958 164.216 74.8958 164.316 76.2958 165.916C77.5958 167.316 77.8958 170.216 77.8958 179.816C77.8958 186.516 77.5958 192.016 77.1958 192.016C76.6958 191.916 72.6958 186.716 68.0958 180.216C61.4958 170.916 59.8958 168.116 60.3958 166.116C60.8958 164.016 60.7958 163.816 58.6958 164.416C55.5958 165.416 54.6958 165.416 52.1958 164.616C50.9958 164.216 49.7958 164.316 49.4958 164.916Z" fill="black"/>
<path d="M401.596 165.316C401.896 165.816 401.596 168.816 400.896 172.016C399.396 179.216 400.096 181.816 402.196 176.816C403.696 173.316 408.896 169.016 411.696 169.016C413.396 169.016 413.496 211.016 411.696 212.816C410.696 213.816 411.396 214.016 414.896 213.916C417.396 213.816 420.796 214.116 422.396 214.516C425.296 215.316 425.396 215.216 423.696 213.316C422.096 211.616 421.896 208.916 421.896 190.716V170.016H424.196C426.696 170.016 430.596 173.716 433.296 178.516L434.996 181.516L434.296 176.016C433.896 173.016 433.596 169.116 433.596 167.516L433.496 164.416H417.296C408.096 164.416 401.296 164.816 401.596 165.316Z" fill="black"/>
<path d="M437.396 166.017C438.596 167.417 438.896 171.917 438.896 190.316C438.896 204.316 438.496 213.116 437.896 213.516C435.696 214.916 437.096 215.916 441.196 215.916C452.596 216.016 461.496 216.616 462.596 217.316C463.296 217.816 463.796 216.516 464.096 213.216C464.396 210.616 464.896 207.716 465.296 206.716C465.996 205.316 465.596 205.016 463.596 205.016C461.896 205.016 459.896 206.416 457.196 209.716C453.796 213.716 452.896 214.216 450.596 213.616L447.896 213.016V200.516C447.896 193.616 448.196 188.016 448.496 188.016C448.896 188.016 450.696 189.316 452.596 191.016C456.696 194.616 457.296 194.716 460.396 191.516C463.796 188.216 463.696 186.216 459.996 186.816C458.296 187.016 455.996 186.516 454.496 185.516C453.096 184.516 450.996 184.016 449.896 184.316C447.996 184.816 447.896 184.316 447.896 176.517C447.896 168.917 448.096 168.117 449.996 167.517C452.296 166.717 455.296 169.017 457.496 173.117C458.696 175.617 464.396 178.917 465.496 177.817C465.696 177.517 465.496 176.117 464.896 174.617C464.396 173.117 463.896 170.117 463.896 167.917C463.896 164.217 463.796 164.017 461.796 165.017C460.596 165.717 458.596 165.917 457.096 165.417C455.596 165.017 450.296 164.617 445.196 164.517C436.796 164.417 436.096 164.617 437.396 166.017Z" fill="black"/>
<path d="M467.396 164.916C467.196 165.416 467.596 166.316 468.396 167.016C470.696 168.916 470.596 214.216 468.396 216.016C466.296 217.716 468.396 219.116 471.296 218.016C472.496 217.616 474.296 217.616 475.396 218.116C476.496 218.516 478.296 218.916 479.396 218.916C480.896 219.016 480.996 218.716 480.096 217.816C479.296 217.016 478.896 212.916 478.896 205.716C478.896 195.116 478.896 194.916 481.096 195.216C483.796 195.616 485.096 198.116 487.896 207.916C490.596 217.116 493.996 221.016 499.496 221.016H503.196L501.196 218.716C499.996 217.516 498.096 213.316 496.896 209.516C495.596 205.616 493.696 200.816 492.596 198.816L490.596 195.116L493.896 192.416C502.296 185.316 501.696 171.716 492.796 166.816C489.996 165.216 488.096 164.916 481.096 165.416C476.496 165.716 471.696 165.516 470.396 165.016C469.096 164.516 467.696 164.516 467.396 164.916ZM488.796 170.116C495.196 177.016 490.396 192.016 481.796 192.016H478.896V181.216C478.896 174.116 479.296 170.016 480.096 169.216C481.996 167.316 486.596 167.816 488.796 170.116Z" fill="black"/>
<path d="M147.096 171.817C147.096 173.417 146.296 176.417 145.496 178.517C142.796 184.917 143.496 191.217 147.096 193.117C148.896 194.117 148.996 193.917 148.496 191.317C148.096 189.617 148.596 186.317 149.896 182.717C152.096 176.517 151.796 173.117 148.996 170.617C147.296 169.117 147.196 169.217 147.096 171.817Z" fill="black"/>
<path d="M308.996 229.916C307.896 231.516 305.896 235.016 304.696 237.616L302.496 242.516L301.996 238.016C301.496 233.916 301.096 233.516 298.496 233.216C295.696 232.816 295.696 232.916 296.196 237.216C296.696 241.416 291.896 264.616 289.796 268.016C289.196 269.016 288.896 265.316 288.996 258.016C288.996 251.716 288.996 245.716 288.996 244.616C288.896 243.016 288.296 242.816 284.296 243.316L279.596 243.816L280.196 238.916C280.796 234.216 280.696 234.016 278.396 234.016C275.496 234.016 273.896 236.616 273.696 241.516C273.596 243.916 274.196 245.516 275.396 246.316C277.096 247.616 277.096 247.816 275.396 251.116C272.696 256.316 265.096 266.716 263.496 267.316C261.496 268.116 260.896 267.216 260.896 263.016C260.896 259.816 261.196 259.416 263.496 259.516C268.796 259.516 273.096 249.016 269.396 245.016C267.396 242.816 262.896 242.416 259.796 244.016C255.196 246.516 252.396 258.016 254.496 265.816C255.196 268.416 259.596 271.016 263.296 271.016C266.596 271.016 272.396 264.316 277.296 254.616C279.496 250.416 281.596 247.016 281.896 247.016C282.296 247.016 282.596 251.416 282.496 256.716C282.496 262.116 282.796 267.916 283.196 269.616L283.996 272.616L274.196 275.416C268.796 276.916 259.196 280.216 252.896 282.716C238.996 288.216 213.896 300.616 213.896 302.016C213.896 303.516 214.696 303.316 225.396 298.916C240.796 292.616 262.696 285.616 280.896 281.016C306.396 274.716 320.896 269.516 320.896 266.816C320.896 265.516 310.796 266.316 300.496 268.516C296.696 269.316 293.396 269.816 293.296 269.716C293.096 269.516 293.596 267.016 294.296 264.016C295.096 261.016 295.996 257.216 296.296 255.716C296.896 253.316 297.196 253.016 298.396 254.016C300.796 256.016 302.496 254.516 304.796 247.816C307.796 239.516 308.896 238.516 308.896 244.216C308.896 250.716 310.596 254.916 313.596 255.616C314.896 256.016 316.396 255.916 316.896 255.416C317.696 254.616 324.896 233.216 324.896 231.716C324.896 231.316 324.296 231.016 323.496 231.016C322.096 231.016 319.596 236.616 316.896 245.716C314.596 253.516 313.596 250.716 314.296 238.516C314.896 227.616 314.796 227.016 312.996 227.016C311.896 227.016 310.096 228.316 308.996 229.916ZM264.996 251.416C262.996 256.116 260.196 257.916 261.496 253.716C262.296 250.916 265.996 245.716 266.596 246.416C266.896 246.616 266.196 248.916 264.996 251.416Z" fill="black"/>
<path d="M222.396 236.016C208.396 240.216 182.996 252.016 179.396 256.016C176.896 258.716 178.096 263.016 181.396 263.016C182.696 263.016 184.096 262.516 184.396 262.016C184.696 261.416 184.496 261.016 183.796 261.016C181.796 261.016 183.696 259.716 193.296 254.516C201.696 250.016 202.196 249.916 201.496 252.116C200.696 255.216 197.896 284.116 197.896 290.116C197.896 296.016 201.196 300.016 206.096 300.016H209.396L207.096 298.216C205.796 297.216 204.596 294.916 204.296 292.916C203.596 289.016 205.096 273.516 207.596 257.116C209.196 247.016 209.196 246.816 212.396 245.416C215.496 244.116 224.296 241.716 230.196 240.516C233.196 239.916 233.696 237.916 231.296 235.616C229.496 233.716 229.896 233.716 222.396 236.016Z" fill="black"/>
<path d="M247.396 242.016C246.996 242.616 247.096 245.416 247.396 248.316C247.896 252.316 247.496 255.816 245.896 262.116C244.596 266.716 243.196 271.216 242.796 272.016C241.796 273.716 241.696 272.116 241.496 259.016C241.396 250.816 241.296 250.516 238.996 250.216C235.896 249.716 234.896 251.416 234.896 257.616C234.896 262.616 231.596 274.616 229.696 276.516C228.696 277.416 228.996 265.916 229.996 262.116C230.496 260.416 227.496 259.516 225.096 260.616C224.196 261.016 222.096 261.416 220.396 261.616C216.796 261.816 213.296 265.716 211.896 271.216C210.496 276.316 211.196 279.516 214.296 281.516C216.496 283.016 219.896 282.716 219.896 281.016C219.896 280.516 220.396 278.916 220.996 277.316L222.096 274.516L223.996 278.716C225.596 282.416 226.196 283.016 228.796 283.016C231.496 283.016 231.896 282.616 232.996 278.716C233.596 276.416 234.496 273.616 234.896 272.516C235.696 270.716 235.796 270.716 235.796 273.016C235.996 278.716 241.496 282.416 244.796 278.916C247.596 275.916 252.896 255.816 252.896 248.316C252.896 243.716 249.096 239.316 247.396 242.016ZM220.396 270.716C217.896 275.316 217.796 275.416 218.396 272.116C218.896 268.916 221.696 264.516 222.596 265.416C222.896 265.616 221.896 268.016 220.396 270.716Z" fill="black"/>
<path d="M99.6958 248.117C96.6958 249.817 97.4958 252.917 101.396 254.617C105.696 256.417 105.896 257.417 101.896 256.817C98.4958 256.317 96.7958 257.717 98.9958 259.117C100.996 260.417 105.296 260.217 106.696 258.817C108.996 256.517 107.996 254.017 104.396 252.417C100.096 250.717 99.7958 249.517 103.796 250.317C107.296 251.017 108.996 248.517 105.596 247.617C102.596 246.817 101.696 246.917 99.6958 248.117Z" fill="black"/>
<path d="M110.596 247.616C110.196 248.016 109.896 251.016 109.896 254.216C109.896 259.416 110.096 260.016 111.896 260.016C113.796 260.016 113.996 259.516 113.696 253.816C113.396 248.116 112.296 245.916 110.596 247.616Z" fill="black"/>
<path d="M116.596 247.716C116.196 248.016 115.896 251.016 115.896 254.216C115.896 259.316 116.096 260.016 117.896 260.016C119.496 260.016 119.896 259.316 119.896 256.716L119.996 253.516L122.696 256.816C126.796 261.716 127.896 261.016 127.896 253.516C127.896 248.416 127.596 247.016 126.396 247.016C125.296 247.016 124.896 248.116 124.896 250.716V254.516L121.796 250.716C118.696 247.016 117.796 246.416 116.596 247.716Z" fill="black"/>
<path d="M131.896 249.016C126.296 254.616 133.996 263.316 140.496 258.616C142.096 257.416 142.096 257.116 140.896 256.616C140.096 256.416 138.296 256.216 136.996 256.316C133.896 256.616 131.996 253.816 133.896 251.516C134.796 250.416 136.096 250.116 137.996 250.516C141.296 251.216 142.696 249.516 139.996 248.116C136.996 246.416 134.096 246.816 131.896 249.016Z" fill="black"/>
<path d="M144.596 247.716C144.196 248.016 143.896 251.016 143.896 254.216V260.016H148.896C152.696 260.016 153.896 259.616 153.896 258.516C153.896 257.516 152.896 257.016 150.896 257.016C149.296 257.016 147.896 256.516 147.896 256.016C147.896 255.416 149.296 255.016 150.996 255.016C154.796 255.016 154.496 252.616 150.596 252.216C146.896 251.816 147.196 250.016 150.896 250.016C152.896 250.016 153.896 249.516 153.896 248.516C153.896 247.416 152.796 247.016 149.596 247.016C147.196 247.016 144.896 247.316 144.596 247.716Z" fill="black"/>
<path d="M363.696 247.716C362.696 247.916 362.196 248.716 362.596 249.616C362.896 250.316 363.496 250.716 363.996 250.416C364.496 250.116 364.896 252.216 364.896 254.916C364.896 258.816 365.296 260.016 366.396 260.016C367.596 260.016 367.896 258.616 367.896 253.516C367.896 246.916 367.696 246.616 363.696 247.716Z" fill="black"/>
<path d="M372.696 248.116C368.596 250.416 372.096 257.016 376.496 255.316C377.696 254.916 377.996 255.016 377.496 255.816C377.096 256.516 375.696 257.016 374.396 257.016C371.496 257.016 370.296 258.616 372.496 259.416C377.096 261.216 380.896 258.416 380.896 253.216C380.896 248.116 376.896 245.616 372.696 248.116ZM377.896 251.516C377.896 252.316 376.996 253.016 375.896 253.016C374.796 253.016 373.896 252.316 373.896 251.516C373.896 250.716 374.796 250.016 375.896 250.016C376.996 250.016 377.896 250.716 377.896 251.516Z" fill="black"/>
<path d="M384.596 248.116C382.196 249.516 383.496 251.116 386.496 250.416C389.996 249.516 389.596 252.316 385.896 255.016C381.296 258.316 381.996 260.016 387.896 260.016C391.696 260.016 392.896 259.616 392.896 258.516C392.896 257.516 391.896 257.016 390.196 257.016H387.496L389.696 255.416C395.096 251.716 390.296 244.816 384.596 248.116Z" fill="black"/>
<path d="M395.696 248.116C391.596 250.416 395.096 257.016 399.496 255.316C400.696 254.916 400.996 255.016 400.496 255.816C400.096 256.516 398.696 257.016 397.396 257.016C394.496 257.016 393.296 258.616 395.496 259.416C400.096 261.216 403.896 258.416 403.896 253.216C403.896 248.116 399.896 245.616 395.696 248.116ZM400.896 251.516C400.896 252.316 399.996 253.016 398.896 253.016C397.796 253.016 396.896 252.316 396.896 251.516C396.896 250.716 397.796 250.016 398.896 250.016C399.996 250.016 400.896 250.716 400.896 251.516Z" fill="black"/>
</svg>
